<svg xmlns="http://www.w3.org/2000/svg" viewBox="0 0 163.81 163.81"><defs><style>.cls-1{fill:#231f20;}</style></defs><title>black-logo</title><g id="Layer_2" data-name="Layer 2"><g id="Layer_1-2" data-name="Layer 1"><polygon class="cls-1" points="28.39 88.47 32.27 88.47 30.36 68.33 28.39 88.47"/><polygon class="cls-1" points="109.6 88.47 113.47 88.47 111.56 68.33 109.6 88.47"/><path class="cls-1" d="M81.9,7.33A74.57,74.57,0,1,0,156.47,81.9,74.66,74.66,0,0,0,81.9,7.33ZM34.61,111.68,32.9,94.28H27.82l-1.72,17.4h-4l6-65.2h4.38l6,65.2Zm27.54,0H58.26V79.8l-4.33,31.88H50.07L45.7,79.8v31.88H41.82V46.48H45.7L52,96.75l6.28-50.27h3.89ZM77.28,52.24H69.52V76.16h7.76V82H69.52v23.92h7.72v5.8H65.64V46.48H77.28Zm15.1,59.44H80.78V46.48h3.88v59.4h7.72Zm7.42,0H95.92V46.48H99.8Zm16,0-1.7-17.4H109l-1.72,17.4h-4l6-65.2h4.38l6,65.2ZM123,53.6c-.45,2-.92,3-1.39,3V52.25c-1.3,0-1.95-1-1.95-2.9s.65-2.87,1.95-2.87,1.91,1,1.91,2.87A22.39,22.39,0,0,1,123,53.6Zm13.52,1.32a4.82,4.82,0,0,0-.61-1.4,3.2,3.2,0,0,0-.94-.93,2,2,0,0,0-1.13-.34,2,2,0,0,0-1.13.34,2.89,2.89,0,0,0-.91.93,5.44,5.44,0,0,0-.62,1.4,5.76,5.76,0,0,0-.24,1.67v8q0,6.21,2.51,9.91c.77,1,1.56,1.91,2.35,2.87s1.58,1.92,2.35,2.9q2.47,4,2.47,11.11v10.15a12.79,12.79,0,0,1-2,7.2q-2,3-4.79,3c-1.89,0-3.48-1-4.79-3a12.68,12.68,0,0,1-2-7.16V97.19h3.88v4.34a5.32,5.32,0,0,0,.86,3.08,2.31,2.31,0,0,0,4.11,0,5.47,5.47,0,0,0,.83-3.08v-8q0-6.16-2.47-9.91c-.77-1-1.55-2-2.35-2.91s-1.58-1.92-2.35-2.9q-2.5-4-2.51-11.11V56.59a12.64,12.64,0,0,1,2-7.12c1.31-2,2.9-3,4.79-3s3.46,1,4.79,3a12.62,12.62,0,0,1,2,7.12V61H136.7V56.59A6.12,6.12,0,0,0,136.48,54.92Z"/><path class="cls-1" d="M81.9,0a81.91,81.91,0,1,0,81.91,81.9A81.9,81.9,0,0,0,81.9,0Zm0,159.22A77.32,77.32,0,1,1,159.22,81.9,77.4,77.4,0,0,1,81.9,159.22Z"/></g></g></svg>