<svg xmlns="http://www.w3.org/2000/svg" viewBox="0 0 94.39 94.39"><defs><style>.cls-1{fill:#fff;}</style></defs><title>white-logo</title><g id="Layer_2" data-name="Layer 2"><g id="Layer_1-2" data-name="Layer 1"><polygon class="cls-1" points="16.36 50.98 18.59 50.98 17.49 39.38 16.36 50.98"/><polygon class="cls-1" points="63.16 50.98 65.39 50.98 64.29 39.38 63.16 50.98"/><path class="cls-1" d="M47.2,4.23a43,43,0,1,0,43,43A43,43,0,0,0,47.2,4.23ZM19.94,64.35l-1-10H16l-1,10H12.75l3.47-37.56h2.52l3.44,37.56Zm15.87,0H33.57V46L31.08,64.35H28.86L26.34,46V64.35H24.1V26.79h2.24l3.62,29,3.61-29h2.24Zm8.72-34.24H40.06V43.89h4.47v3.34H40.06V61h4.45v3.34H37.82V26.79h6.71Zm8.71,34.24H46.55V26.79h2.24V61h4.45Zm4.27,0H55.27V26.79h2.24Zm9.23,0-1-10H62.82l-1,10H59.54L63,26.79h2.53L69,64.35Zm4.12-33.46c-.26,1.14-.53,1.72-.81,1.72v-2.5c-.75,0-1.12-.56-1.12-1.67s.37-1.65,1.12-1.65,1.1.55,1.1,1.65A13.41,13.41,0,0,1,70.86,30.89Zm7.79.76a2.73,2.73,0,0,0-.36-.81,1.82,1.82,0,0,0-.53-.54,1.23,1.23,0,0,0-.66-.19,1.2,1.2,0,0,0-.65.19,1.71,1.71,0,0,0-.53.54,3.53,3.53,0,0,0-.49,1.77v4.61a10,10,0,0,0,1.45,5.71q.66.82,1.35,1.65c.46.55.91,1.11,1.36,1.68A12.17,12.17,0,0,1,81,52.66v5.85a7.37,7.37,0,0,1-1.15,4.15,3.09,3.09,0,0,1-5.52,0,7.34,7.34,0,0,1-1.14-4.12V56h2.23v2.5a3.12,3.12,0,0,0,.49,1.77A1.42,1.42,0,0,0,77.1,61a1.39,1.39,0,0,0,1.19-.73,3.12,3.12,0,0,0,.48-1.77V53.92a10.19,10.19,0,0,0-1.42-5.71q-.66-.85-1.35-1.68c-.46-.55-.91-1.1-1.36-1.67a12,12,0,0,1-1.44-6.4V32.61a7.32,7.32,0,0,1,1.14-4.1,3.07,3.07,0,0,1,5.52,0A7.25,7.25,0,0,1,81,32.61v2.52H78.77V32.61A3.71,3.71,0,0,0,78.65,31.65Z"/><path class="cls-1" d="M47.2,0A47.2,47.2,0,1,0,94.39,47.2,47.2,47.2,0,0,0,47.2,0Zm0,91.75A44.56,44.56,0,1,1,91.75,47.2,44.61,44.61,0,0,1,47.2,91.75Z"/></g></g></svg>